<svg width="42" height="32" viewBox="0 0 42 32" fill="none" xmlns="http://www.w3.org/2000/svg">
<path fill-rule="evenodd" clip-rule="evenodd" d="M2 5.46082H3.99978C4.00007 5.71947 4.20262 5.96844 4.55279 6.09198C5.04676 6.26628 5.64744 6.12499 5.89443 5.7764L6.11803 5.46082H13.882L14.1056 5.7764C14.3526 6.12499 14.9532 6.26628 15.4472 6.09198C15.7974 5.96844 15.9999 5.71947 16.0002 5.46082H18V6.87215H2V5.46082ZM15.118 4.04948H18C19.1046 4.04948 20 4.68136 20 5.46082V6.87215C20 7.46492 19.4821 7.97234 18.7482 8.1814C18.7516 8.21511 18.7534 8.24916 18.7534 8.28348C18.7534 8.38646 18.7374 8.48912 18.7058 8.58965L17.1502 13.5293C16.9469 14.1751 16.1352 14.6345 15.1978 14.6345H4.80217C3.86477 14.6345 3.05315 14.1751 2.8498 13.5293L1.29424 8.58965C1.25095 8.45216 1.23767 8.3149 1.25134 8.18128C0.517673 7.97215 0 7.46481 0 6.87215V5.46082C0 4.68136 0.89543 4.04948 2 4.04948H4.88197L7.10557 0.911234C7.35256 0.562649 7.95323 0.421358 8.44721 0.59565C8.94119 0.769942 9.14142 1.19382 8.89443 1.5424L7.11803 4.04948H12.882L11.1056 1.5424C10.8586 1.19382 11.0588 0.769942 11.5528 0.59565C12.0468 0.421358 12.6474 0.562649 12.8944 0.911234L15.118 4.04948ZM3.24662 8.28348H16.7534L15.1978 13.2232H4.80217L3.24662 8.28348Z" fill="black"/>
<path d="M27.374 29.52C26.7767 28.8013 26.2727 27.9147 25.862 26.86C25.4607 25.796 25.26 24.5593 25.26 23.15C25.26 21.7407 25.4607 20.504 25.862 19.44C26.2727 18.376 26.7767 17.4893 27.374 16.78H28.844C28.2093 17.4893 27.6773 18.376 27.248 19.44C26.8187 20.504 26.604 21.7407 26.604 23.15C26.604 24.5593 26.8187 25.796 27.248 26.86C27.6773 27.9147 28.2093 28.8013 28.844 29.52H27.374ZM32.966 27.182C32.2847 27.182 31.6733 27.0327 31.132 26.734C30.6 26.4353 30.1753 26.0293 29.858 25.516C29.55 25.0027 29.396 24.4287 29.396 23.794V20.406C29.396 19.7713 29.55 19.1973 29.858 18.684C30.1753 18.1707 30.6 17.7693 31.132 17.48C31.6733 17.1813 32.2847 17.032 32.966 17.032C33.638 17.032 34.24 17.1813 34.772 17.48C35.304 17.7787 35.724 18.1847 36.032 18.698C36.3493 19.202 36.508 19.7713 36.508 20.406V23.794C36.508 24.4287 36.3493 25.0027 36.032 25.516C35.724 26.0293 35.304 26.4353 34.772 26.734C34.24 27.0327 33.638 27.182 32.966 27.182ZM32.966 25.992C33.3673 25.992 33.7313 25.8987 34.058 25.712C34.394 25.5253 34.66 25.278 34.856 24.97C35.0613 24.6527 35.164 24.3027 35.164 23.92V20.28C35.164 19.8973 35.0613 19.552 34.856 19.244C34.66 18.9267 34.394 18.6747 34.058 18.488C33.7313 18.3013 33.3673 18.208 32.966 18.208C32.5647 18.208 32.1913 18.3013 31.846 18.488C31.51 18.6747 31.2393 18.9267 31.034 19.244C30.838 19.552 30.74 19.8973 30.74 20.28V23.92C30.74 24.3027 30.838 24.6527 31.034 24.97C31.2393 25.278 31.51 25.5253 31.846 25.712C32.182 25.8987 32.5553 25.992 32.966 25.992ZM37.0703 29.52C37.705 28.8013 38.237 27.9147 38.6663 26.86C39.0956 25.796 39.3103 24.5593 39.3103 23.15C39.3103 21.7407 39.0956 20.504 38.6663 19.44C38.237 18.376 37.705 17.4893 37.0703 16.78H38.5403C39.1376 17.4893 39.637 18.376 40.0383 19.44C40.449 20.504 40.6543 21.7407 40.6543 23.15C40.6543 24.5593 40.449 25.796 40.0383 26.86C39.637 27.9147 39.1376 28.8013 38.5403 29.52H37.0703Z" fill="black"/>
</svg>
